<svg xmlns="http://www.w3.org/2000/svg" viewBox="0 0 24 24" width="24" height="24"><path fill="#fff" fill-rule="evenodd" d="M1.95 1.80L1.81 1.81L1.67 1.85L1.55 1.92L1.44 2.01L1.35 2.12L1.28 2.24L1.24 2.38L1.23 2.52L1.23 4.08L1.26 4.29L1.35 4.48L1.49 4.64L1.67 4.75L1.88 4.80L18.51 4.80L18.65 4.79L18.79 4.75L18.91 4.68L19.02 4.59L19.11 4.48L19.18 4.36L19.23 4.15L19.23 2.52L19.20 2.31L19.11 2.12L18.97 1.96L18.79 1.85L18.58 1.80L1.95 1.80Z"/><path fill="#fff" fill-opacity="0.78" fill-rule="evenodd" d="M1.95 5.88L1.81 5.89L1.67 5.93L1.55 6.00L1.44 6.09L1.35 6.20L1.28 6.32L1.24 6.46L1.23 6.60L1.23 8.16L1.26 8.37L1.35 8.56L1.49 8.72L1.67 8.83L1.88 8.88L18.51 8.88L18.72 8.85L18.85 8.80L18.97 8.72L19.07 8.62L19.15 8.50L19.20 8.37L19.23 8.23L19.23 6.60L19.20 6.39L19.11 6.20L18.97 6.04L18.79 5.93L18.58 5.88L1.95 5.88Z"/><path fill="#fff" fill-opacity="0.6" fill-rule="evenodd" d="M1.95 9.96L1.81 9.97L1.67 10.01L1.55 10.08L1.44 10.17L1.35 10.28L1.28 10.40L1.24 10.54L1.23 10.68L1.23 12.24L1.26 12.45L1.35 12.64L1.49 12.80L1.67 12.91L1.88 12.96L13.08 12.96L15.44 10.88L15.72 10.67L16.03 10.53L16.37 10.45L16.72 10.44L17.06 10.50L17.38 10.63L17.67 10.82L17.92 11.06L18.12 11.35L18.19 11.50L18.28 11.77L18.47 11.49L18.74 11.22L19.05 11.01L19.23 10.92L19.22 10.54L19.18 10.40L19.11 10.28L19.02 10.17L18.91 10.08L18.72 9.99L18.58 9.96L1.95 9.96Z"/><path fill="#fff" fill-opacity="0.44" fill-rule="evenodd" d="M1.95 14.04L1.74 14.07L1.61 14.13L1.49 14.20L1.39 14.30L1.32 14.42L1.26 14.55L1.23 14.69L1.23 16.32L1.24 16.46L1.28 16.60L1.39 16.78L1.49 16.88L1.67 16.99L1.81 17.03L1.95 17.04L9.33 17.04L9.34 14.77L9.40 14.44L9.46 14.27L9.58 14.04L1.95 14.04Z"/><path fill="#fff" fill-opacity="0.3" fill-rule="evenodd" d="M1.95 18.12L1.81 18.13L1.67 18.17L1.49 18.28L1.39 18.38L1.32 18.50L1.26 18.63L1.23 18.77L1.23 20.40L1.24 20.54L1.32 20.74L1.44 20.91L1.61 21.04L1.74 21.09L1.95 21.12L13.49 21.12L12.81 20.52L10.90 20.51L10.56 20.45L10.40 20.39L10.10 20.23L9.97 20.13L9.73 19.88L9.54 19.60L9.46 19.45L9.36 19.12L9.34 18.95L9.33 18.12L1.95 18.12Z"/><path fill="#fff" fill-rule="evenodd" d="M10.41 18.78L10.42 18.91L10.46 19.03L10.56 19.20L10.65 19.29L10.76 19.36L10.94 19.43L13.22 19.44L16.20 22.08L16.38 22.17L16.51 22.19L16.64 22.20L16.83 22.15L16.95 22.09L17.05 22.01L17.14 21.91L17.20 21.80L17.24 21.67L17.25 21.54L17.25 12.18L17.24 12.05L17.20 11.92L17.14 11.81L17.05 11.71L16.95 11.63L16.83 11.57L16.64 11.52L16.44 11.54L16.32 11.58L16.20 11.64L13.22 14.28L11.01 14.28L10.88 14.31L10.76 14.36L10.60 14.47L10.52 14.57L10.46 14.69L10.42 14.81L10.41 14.94L10.41 18.78ZM18.14 15.49L18.40 15.83L18.58 16.22L18.68 16.64L18.68 17.08L18.61 17.43L18.44 17.83L18.24 18.12L17.92 18.44L17.79 18.63L17.72 18.84L17.71 19.07L17.74 19.22L17.81 19.36L17.90 19.49L18.01 19.59L18.14 19.67L18.28 19.73L18.43 19.75L18.58 19.75L18.73 19.71L18.87 19.65L19.19 19.39L19.36 19.20L19.59 18.92L19.87 18.46L20.07 17.98L20.19 17.49L20.25 16.97L20.23 16.49L20.17 16.11L20.07 15.74L19.97 15.47L19.79 15.12L19.59 14.80L19.35 14.50L19.00 14.16L18.80 14.03L18.66 13.99L18.51 13.97L18.35 13.98L18.21 14.02L18.07 14.08L17.95 14.18L17.85 14.29L17.77 14.43L17.72 14.57L17.70 14.72L17.72 14.88L17.76 15.02L17.87 15.22L18.14 15.49ZM19.86 13.65L20.21 14.03L20.51 14.44L20.75 14.89L20.89 15.20L21.01 15.52L21.13 16.01L21.18 16.35L21.21 16.86L21.18 17.37L21.09 17.87L20.95 18.36L20.75 18.83L20.51 19.28L20.31 19.56L20.10 19.82L19.86 20.07L19.36 20.52L19.27 20.65L19.20 20.86L19.18 21.09L19.21 21.24L19.27 21.38L19.36 21.51L19.46 21.62L19.59 21.71L19.73 21.77L19.96 21.80L20.18 21.77L20.39 21.67L20.95 21.19L21.43 20.66L21.70 20.29L21.95 19.91L22.15 19.53L22.34 19.11L22.56 18.43L22.66 17.98L22.73 17.56L22.77 16.85L22.75 16.42L22.70 15.96L22.56 15.29L22.34 14.61L22.05 13.99L21.81 13.59L21.57 13.24L21.11 12.69L20.78 12.37L20.39 12.05L20.18 11.95L20.03 11.92L19.88 11.92L19.73 11.95L19.59 12.01L19.46 12.10L19.36 12.21L19.27 12.34L19.21 12.48L19.18 12.63L19.18 12.78L19.22 12.93L19.31 13.14L19.41 13.25L19.86 13.65Z"/></svg>
